<svg width="533" height="188" viewBox="0 0 533 188" fill="none" xmlns="http://www.w3.org/2000/svg">
<path d="M159 76.0001L99 52.0001L39 76.0001L99 100L159 76.0001ZM159 76.0001V112M63 85.5999V118C63 122.774 66.7928 127.352 73.5442 130.728C80.2955 134.103 89.4522 136 99 136C108.548 136 117.705 134.103 124.456 130.728C131.207 127.352 135 122.774 135 118V85.5999" stroke="#7CCF00" stroke-width="12" stroke-linecap="round" stroke-linejoin="round"/>
<path d="M97.4528 67.9199C97.4528 68.9595 98.1411 69.9565 99.3663 70.6916C100.591 71.4267 102.253 71.8397 103.986 71.8397C105.718 71.8397 107.38 71.4267 108.605 70.6916C109.831 69.9565 110.519 68.9595 110.519 67.9199M97.4528 67.9199C97.4528 66.8803 98.1411 65.8833 99.3663 65.1482C100.591 64.4131 102.253 64.0001 103.986 64.0001C105.718 64.0001 107.38 64.4131 108.605 65.1482C109.831 65.8833 110.519 66.8803 110.519 67.9199M97.4528 67.9199V73.1463M110.519 67.9199V73.1463M97.4528 73.1463C97.4528 75.3113 100.378 77.0661 103.986 77.0661C107.593 77.0661 110.519 75.3113 110.519 73.1463M97.4528 73.1463V78.3727M110.519 73.1463V78.3727M97.4528 78.3727C97.4528 80.5377 100.378 82.2925 103.986 82.2925C107.593 82.2925 110.519 80.5377 110.519 78.3727M97.4528 78.3727V83.5991C97.4528 85.7641 100.378 87.5189 103.986 87.5189C107.593 87.5189 110.519 85.7641 110.519 83.5991V78.3727M92.2264 71.8397H88.9599C88.4401 71.8397 87.9416 72.0462 87.574 72.4137C87.2065 72.7813 87 73.2798 87 73.7996C87 74.3194 87.2065 74.8179 87.574 75.1854C87.9416 75.553 88.4401 75.7595 88.9599 75.7595H90.2665C90.7863 75.7595 91.2848 75.966 91.6524 76.3335C92.0199 76.7011 92.2264 77.1996 92.2264 77.7194C92.2264 78.2392 92.0199 78.7377 91.6524 79.1052C91.2848 79.4728 90.7863 79.6793 90.2665 79.6793H87M89.6132 79.6793V80.9859M89.6132 70.5331V71.8397" stroke="#7CCF00" stroke-width="2.6132" stroke-linecap="round" stroke-linejoin="round"/>
<path d="M210.952 81.048H198.376L196.36 87H187.768L199.96 53.304H209.464L221.656 87H212.968L210.952 81.048ZM208.84 74.712L204.664 62.376L200.536 74.712H208.84ZM235.543 59.832C237.431 59.832 239.079 60.216 240.487 60.984C241.927 61.752 243.031 62.76 243.799 64.008V60.216H252.007V86.952C252.007 89.416 251.511 91.64 250.519 93.624C249.559 95.64 248.071 97.24 246.055 98.424C244.071 99.608 241.591 100.2 238.615 100.2C234.647 100.2 231.431 99.256 228.967 97.368C226.503 95.512 225.095 92.984 224.743 89.784H232.855C233.111 90.808 233.719 91.608 234.679 92.184C235.639 92.792 236.823 93.096 238.231 93.096C239.927 93.096 241.271 92.6 242.263 91.608C243.287 90.648 243.799 89.096 243.799 86.952V83.16C242.999 84.408 241.895 85.432 240.487 86.232C239.079 87 237.431 87.384 235.543 87.384C233.335 87.384 231.335 86.824 229.543 85.704C227.751 84.552 226.327 82.936 225.271 80.856C224.247 78.744 223.735 76.312 223.735 73.56C223.735 70.808 224.247 68.392 225.271 66.312C226.327 64.232 227.751 62.632 229.543 61.512C231.335 60.392 233.335 59.832 235.543 59.832ZM243.799 73.608C243.799 71.56 243.223 69.944 242.071 68.76C240.951 67.576 239.575 66.984 237.943 66.984C236.311 66.984 234.919 67.576 233.767 68.76C232.647 69.912 232.087 71.512 232.087 73.56C232.087 75.608 232.647 77.24 233.767 78.456C234.919 79.64 236.311 80.232 237.943 80.232C239.575 80.232 240.951 79.64 242.071 78.456C243.223 77.272 243.799 75.656 243.799 73.608ZM262.073 57.432C260.633 57.432 259.449 57.016 258.521 56.184C257.625 55.32 257.177 54.264 257.177 53.016C257.177 51.736 257.625 50.68 258.521 49.848C259.449 48.984 260.633 48.552 262.073 48.552C263.481 48.552 264.633 48.984 265.529 49.848C266.457 50.68 266.921 51.736 266.921 53.016C266.921 54.264 266.457 55.32 265.529 56.184C264.633 57.016 263.481 57.432 262.073 57.432ZM266.153 60.216V87H257.945V60.216H266.153ZM288.421 59.928C291.557 59.928 294.053 60.952 295.909 63C297.797 65.016 298.741 67.8 298.741 71.352V87H290.581V72.456C290.581 70.664 290.117 69.272 289.189 68.28C288.261 67.288 287.013 66.792 285.445 66.792C283.877 66.792 282.629 67.288 281.701 68.28C280.773 69.272 280.309 70.664 280.309 72.456V87H272.101V60.216H280.309V63.768C281.141 62.584 282.261 61.656 283.669 60.984C285.077 60.28 286.661 59.928 288.421 59.928Z" fill="#5EA500"/>
<path d="M188.4 124C188.4 121.253 189.013 118.8 190.24 116.64C191.493 114.453 193.187 112.76 195.32 111.56C197.48 110.333 199.893 109.72 202.56 109.72C205.68 109.72 208.413 110.52 210.76 112.12C213.107 113.72 214.747 115.933 215.68 118.76H209.24C208.6 117.427 207.693 116.427 206.52 115.76C205.373 115.093 204.04 114.76 202.52 114.76C200.893 114.76 199.44 115.147 198.16 115.92C196.907 116.667 195.92 117.733 195.2 119.12C194.507 120.507 194.16 122.133 194.16 124C194.16 125.84 194.507 127.467 195.2 128.88C195.92 130.267 196.907 131.347 198.16 132.12C199.44 132.867 200.893 133.24 202.52 133.24C204.04 133.24 205.373 132.907 206.52 132.24C207.693 131.547 208.6 130.533 209.24 129.2H215.68C214.747 132.053 213.107 134.28 210.76 135.88C208.44 137.453 205.707 138.24 202.56 138.24C199.893 138.24 197.48 137.64 195.32 136.44C193.187 135.213 191.493 133.52 190.24 131.36C189.013 129.2 188.4 126.747 188.4 124ZM226.063 108.4V138H220.463V108.4H226.063ZM230.156 126.84C230.156 124.6 230.596 122.613 231.476 120.88C232.383 119.147 233.596 117.813 235.116 116.88C236.663 115.947 238.383 115.48 240.276 115.48C241.929 115.48 243.369 115.813 244.596 116.48C245.849 117.147 246.849 117.987 247.596 119V115.84H253.236V138H247.596V134.76C246.876 135.8 245.876 136.667 244.596 137.36C243.343 138.027 241.889 138.36 240.236 138.36C238.369 138.36 236.663 137.88 235.116 136.92C233.596 135.96 232.383 134.613 231.476 132.88C230.596 131.12 230.156 129.107 230.156 126.84ZM247.596 126.92C247.596 125.56 247.329 124.4 246.796 123.44C246.263 122.453 245.543 121.707 244.636 121.2C243.729 120.667 242.756 120.4 241.716 120.4C240.676 120.4 239.716 120.653 238.836 121.16C237.956 121.667 237.236 122.413 236.676 123.4C236.143 124.36 235.876 125.507 235.876 126.84C235.876 128.173 236.143 129.347 236.676 130.36C237.236 131.347 237.956 132.107 238.836 132.64C239.743 133.173 240.703 133.44 241.716 133.44C242.756 133.44 243.729 133.187 244.636 132.68C245.543 132.147 246.263 131.4 246.796 130.44C247.329 129.453 247.596 128.28 247.596 126.92ZM267.185 138.36C265.372 138.36 263.745 138.04 262.305 137.4C260.865 136.733 259.719 135.84 258.865 134.72C258.039 133.6 257.585 132.36 257.505 131H263.145C263.252 131.853 263.665 132.56 264.385 133.12C265.132 133.68 266.052 133.96 267.145 133.96C268.212 133.96 269.039 133.747 269.625 133.32C270.239 132.893 270.545 132.347 270.545 131.68C270.545 130.96 270.172 130.427 269.425 130.08C268.705 129.707 267.545 129.307 265.945 128.88C264.292 128.48 262.932 128.067 261.865 127.64C260.825 127.213 259.919 126.56 259.145 125.68C258.399 124.8 258.025 123.613 258.025 122.12C258.025 120.893 258.372 119.773 259.065 118.76C259.785 117.747 260.799 116.947 262.105 116.36C263.439 115.773 264.999 115.48 266.785 115.48C269.425 115.48 271.532 116.147 273.105 117.48C274.679 118.787 275.545 120.56 275.705 122.8H270.345C270.265 121.92 269.892 121.227 269.225 120.72C268.585 120.187 267.719 119.92 266.625 119.92C265.612 119.92 264.825 120.107 264.265 120.48C263.732 120.853 263.465 121.373 263.465 122.04C263.465 122.787 263.839 123.36 264.585 123.76C265.332 124.133 266.492 124.52 268.065 124.92C269.665 125.32 270.985 125.733 272.025 126.16C273.065 126.587 273.959 127.253 274.705 128.16C275.479 129.04 275.879 130.213 275.905 131.68C275.905 132.96 275.545 134.107 274.825 135.12C274.132 136.133 273.119 136.933 271.785 137.52C270.479 138.08 268.945 138.36 267.185 138.36ZM288.982 138.36C287.169 138.36 285.542 138.04 284.102 137.4C282.662 136.733 281.516 135.84 280.662 134.72C279.836 133.6 279.382 132.36 279.302 131H284.942C285.049 131.853 285.462 132.56 286.182 133.12C286.929 133.68 287.849 133.96 288.942 133.96C290.009 133.96 290.836 133.747 291.422 133.32C292.036 132.893 292.342 132.347 292.342 131.68C292.342 130.96 291.969 130.427 291.222 130.08C290.502 129.707 289.342 129.307 287.742 128.88C286.089 128.48 284.729 128.067 283.662 127.64C282.622 127.213 281.716 126.56 280.942 125.68C280.196 124.8 279.822 123.613 279.822 122.12C279.822 120.893 280.169 119.773 280.862 118.76C281.582 117.747 282.596 116.947 283.902 116.36C285.236 115.773 286.796 115.48 288.582 115.48C291.222 115.48 293.329 116.147 294.902 117.48C296.476 118.787 297.342 120.56 297.502 122.8H292.142C292.062 121.92 291.689 121.227 291.022 120.72C290.382 120.187 289.516 119.92 288.422 119.92C287.409 119.92 286.622 120.107 286.062 120.48C285.529 120.853 285.262 121.373 285.262 122.04C285.262 122.787 285.636 123.36 286.382 123.76C287.129 124.133 288.289 124.52 289.862 124.92C291.462 125.32 292.782 125.733 293.822 126.16C294.862 126.587 295.756 127.253 296.502 128.16C297.276 129.04 297.676 130.213 297.702 131.68C297.702 132.96 297.342 134.107 296.622 135.12C295.929 136.133 294.916 136.933 293.582 137.52C292.276 138.08 290.742 138.36 288.982 138.36ZM342.27 110.08V138H336.67V119.84L329.19 138H324.95L317.43 119.84V138H311.83V110.08H318.19L327.07 130.84L335.95 110.08H342.27ZM346.367 126.84C346.367 124.6 346.807 122.613 347.687 120.88C348.594 119.147 349.807 117.813 351.327 116.88C352.874 115.947 354.594 115.48 356.487 115.48C358.14 115.48 359.58 115.813 360.807 116.48C362.06 117.147 363.06 117.987 363.807 119V115.84H369.447V138H363.807V134.76C363.087 135.8 362.087 136.667 360.807 137.36C359.554 138.027 358.1 138.36 356.447 138.36C354.58 138.36 352.874 137.88 351.327 136.92C349.807 135.96 348.594 134.613 347.687 132.88C346.807 131.12 346.367 129.107 346.367 126.84ZM363.807 126.92C363.807 125.56 363.54 124.4 363.007 123.44C362.474 122.453 361.754 121.707 360.847 121.2C359.94 120.667 358.967 120.4 357.927 120.4C356.887 120.4 355.927 120.653 355.047 121.16C354.167 121.667 353.447 122.413 352.887 123.4C352.354 124.36 352.087 125.507 352.087 126.84C352.087 128.173 352.354 129.347 352.887 130.36C353.447 131.347 354.167 132.107 355.047 132.64C355.954 133.173 356.914 133.44 357.927 133.44C358.967 133.44 359.94 133.187 360.847 132.68C361.754 132.147 362.474 131.4 363.007 130.44C363.54 129.453 363.807 128.28 363.807 126.92ZM387.196 115.52C389.836 115.52 391.97 116.36 393.596 118.04C395.223 119.693 396.036 122.013 396.036 125V138H390.436V125.76C390.436 124 389.996 122.653 389.116 121.72C388.236 120.76 387.036 120.28 385.516 120.28C383.97 120.28 382.743 120.76 381.836 121.72C380.956 122.653 380.516 124 380.516 125.76V138H374.916V115.84H380.516V118.6C381.263 117.64 382.21 116.893 383.356 116.36C384.53 115.8 385.81 115.52 387.196 115.52ZM399.922 126.84C399.922 124.6 400.362 122.613 401.242 120.88C402.148 119.147 403.362 117.813 404.882 116.88C406.428 115.947 408.148 115.48 410.042 115.48C411.695 115.48 413.135 115.813 414.362 116.48C415.615 117.147 416.615 117.987 417.362 119V115.84H423.002V138H417.362V134.76C416.642 135.8 415.642 136.667 414.362 137.36C413.108 138.027 411.655 138.36 410.002 138.36C408.135 138.36 406.428 137.88 404.882 136.92C403.362 135.96 402.148 134.613 401.242 132.88C400.362 131.12 399.922 129.107 399.922 126.84ZM417.362 126.92C417.362 125.56 417.095 124.4 416.562 123.44C416.028 122.453 415.308 121.707 414.402 121.2C413.495 120.667 412.522 120.4 411.482 120.4C410.442 120.4 409.482 120.653 408.602 121.16C407.722 121.667 407.002 122.413 406.442 123.4C405.908 124.36 405.642 125.507 405.642 126.84C405.642 128.173 405.908 129.347 406.442 130.36C407.002 131.347 407.722 132.107 408.602 132.64C409.508 133.173 410.468 133.44 411.482 133.44C412.522 133.44 413.495 133.187 414.402 132.68C415.308 132.147 416.028 131.4 416.562 130.44C417.095 129.453 417.362 128.28 417.362 126.92ZM437.151 115.48C438.804 115.48 440.258 115.813 441.511 116.48C442.764 117.12 443.751 117.96 444.471 119V115.84H450.111V138.16C450.111 140.213 449.698 142.04 448.871 143.64C448.044 145.267 446.804 146.547 445.151 147.48C443.498 148.44 441.498 148.92 439.151 148.92C436.004 148.92 433.418 148.187 431.391 146.72C429.391 145.253 428.258 143.253 427.991 140.72H433.551C433.844 141.733 434.471 142.533 435.431 143.12C436.418 143.733 437.604 144.04 438.991 144.04C440.618 144.04 441.938 143.547 442.951 142.56C443.964 141.6 444.471 140.133 444.471 138.16V134.72C443.751 135.76 442.751 136.627 441.471 137.32C440.218 138.013 438.778 138.36 437.151 138.36C435.284 138.36 433.578 137.88 432.031 136.92C430.484 135.96 429.258 134.613 428.351 132.88C427.471 131.12 427.031 129.107 427.031 126.84C427.031 124.6 427.471 122.613 428.351 120.88C429.258 119.147 430.471 117.813 431.991 116.88C433.538 115.947 435.258 115.48 437.151 115.48ZM444.471 126.92C444.471 125.56 444.204 124.4 443.671 123.44C443.138 122.453 442.418 121.707 441.511 121.2C440.604 120.667 439.631 120.4 438.591 120.4C437.551 120.4 436.591 120.653 435.711 121.16C434.831 121.667 434.111 122.413 433.551 123.4C433.018 124.36 432.751 125.507 432.751 126.84C432.751 128.173 433.018 129.347 433.551 130.36C434.111 131.347 434.831 132.107 435.711 132.64C436.618 133.173 437.578 133.44 438.591 133.44C439.631 133.44 440.604 133.187 441.511 132.68C442.418 132.147 443.138 131.4 443.671 130.44C444.204 129.453 444.471 128.28 444.471 126.92ZM476.18 126.44C476.18 127.24 476.127 127.96 476.02 128.6H459.82C459.954 130.2 460.514 131.453 461.5 132.36C462.487 133.267 463.7 133.72 465.14 133.72C467.22 133.72 468.7 132.827 469.58 131.04H475.62C474.98 133.173 473.754 134.933 471.94 136.32C470.127 137.68 467.9 138.36 465.26 138.36C463.127 138.36 461.207 137.893 459.5 136.96C457.82 136 456.5 134.653 455.54 132.92C454.607 131.187 454.14 129.187 454.14 126.92C454.14 124.627 454.607 122.613 455.54 120.88C456.474 119.147 457.78 117.813 459.46 116.88C461.14 115.947 463.074 115.48 465.26 115.48C467.367 115.48 469.247 115.933 470.9 116.84C472.58 117.747 473.874 119.04 474.78 120.72C475.714 122.373 476.18 124.28 476.18 126.44ZM470.38 124.84C470.354 123.4 469.834 122.253 468.82 121.4C467.807 120.52 466.567 120.08 465.1 120.08C463.714 120.08 462.54 120.507 461.58 121.36C460.647 122.187 460.074 123.347 459.86 124.84H470.38ZM485.868 119.28C486.588 118.107 487.521 117.187 488.668 116.52C489.841 115.853 491.174 115.52 492.668 115.52V121.4H491.188C489.428 121.4 488.094 121.813 487.188 122.64C486.308 123.467 485.868 124.907 485.868 126.96V138H480.268V115.84H485.868V119.28Z" fill="#7CCF00"/>
</svg>
